# xmcd
#
# Track frame offsets: 
#        150
#        18235
#        42270
#        60962
#        75787
#        91237
#        108797
#        125047
#        144005
#        160037
#        175262
#        195307
#        210527
#        226095
#
# Disc length: 3210 seconds
#
# Revision: 5
# Processed by: cddbd v1.5.2PL0 Copyright (c) Steve Scherf et al.
# Submitted via: ExactAudioCopy v0.99pb5
#
DISCID=960c880e
DTITLE=Barry White - Music Unlimited
DYEAR=0
DGENRE=Blues
TTITLE0=I'm gonna love you just a little bit more baby
TTITLE1=I've got so much love to give
TTITLE2=Never, never gonna give ya up
TTITLE3=Honey please, can't ya see
TTITLE4=You're the first, my last, my everything
TTITLE5=Can't get enough of your love, babe
TTITLE6=What I'm gonna do with you
TTITLE7=I'll do for you anything you want me to do
TTITLE8=Let the music play
TTITLE9=You see the trouble with me
TTITLE10=Baby, we better try to get it together
TTITLE11=Don't make me wait too long
TTITLE12=It's ecstasy when you lay next to me
TTITLE13=Oh, what a night for dancing
EXTD=
EXTT0=
EXTT1=
EXTT2=
EXTT3=
EXTT4=
EXTT5=
EXTT6=
EXTT7=
EXTT8=
EXTT9=
EXTT10=
EXTT11=
EXTT12=
EXTT13=
PLAYORDER=
